<?xml version="1.0" standalone="no"?><!DOCTYPE svg PUBLIC "-//W3C//DTD SVG 1.1//EN" "http://www.w3.org/Graphics/SVG/1.1/DTD/svg11.dtd"><svg t="1667356778550" class="icon" viewBox="0 0 1024 1024" version="1.1" xmlns="http://www.w3.org/2000/svg" p-id="1290" xmlns:xlink="http://www.w3.org/1999/xlink" width="200" height="200"><path d="M512 0C229.239467 0 0 229.239467 0 512c0 282.760533 229.239467 512 512 512 282.760533 0 512-229.239467 512-512A512 512 0 0 0 512 0z" fill="#EDEDED" p-id="1291"></path><path d="M544.256 763.357867a54.613333 54.613333 0 0 1-37.853867 14.882133 51.541333 51.541333 0 0 1-37.853866-15.530667 50.858667 50.858667 0 0 1-15.496534-37.205333 47.786667 47.786667 0 0 1 15.496534-37.239467 51.541333 51.541333 0 0 1 37.888-14.916266c14.336-0.512 28.228267 4.846933 38.468266 14.916266a47.786667 47.786667 0 0 1 15.496534 37.205334c0.2048 14.5408-5.632 28.4672-16.145067 38.5024v-0.6144zM649.762133 477.866667a748.4416 748.4416 0 0 1-62.0544 57.105066c-12.765867 10.24-23.1424 23.176533-30.378666 37.853867a98.065067 98.065067 0 0 0-11.810134 48.401067v12.424533h-77.585066V621.226667a145.237333 145.237333 0 0 1 14.882133-69.495467 377.344 377.344 0 0 1 81.92-91.8528l12.424533-13.653333c12.6976-14.9504 19.933867-33.792 20.48-53.384534a84.411733 84.411733 0 0 0-23.552-57.105066A84.411733 84.411733 0 0 0 512 314.026667a81.3056 81.3056 0 0 0-71.338667 31.6416 124.1088 124.1088 0 0 0-19.899733 74.478933h-74.478933a170.052267 170.052267 0 0 1 45.943466-124.1088 170.666667 170.666667 0 0 1 127.214934-46.557867 164.4544 164.4544 0 0 1 116.667733 35.362134 130.935467 130.935467 0 0 1 44.066133 104.891733 141.482667 141.482667 0 0 1-30.378666 88.746667V477.866667z" fill="#FFFFFF" p-id="1292"></path></svg>